<svg width="270" height="171" viewBox="0 0 270 171" fill="none" xmlns="http://www.w3.org/2000/svg">
<path d="M164.53 52.5303C164.823 52.2374 164.823 51.7626 164.53 51.4697L159.757 46.6967C159.464 46.4038 158.99 46.4038 158.697 46.6967C158.404 46.9896 158.404 47.4645 158.697 47.7574L162.939 52L158.697 56.2426C158.404 56.5355 158.404 57.0104 158.697 57.3033C158.99 57.5962 159.464 57.5962 159.757 57.3033L164.53 52.5303ZM105 52.75L164 52.75L164 51.25L105 51.25L105 52.75Z" fill="#787878"/>
<path d="M51 144L50.25 144L50.25 144.75L51 144.75L51 144ZM81.5303 144.53C81.8232 144.237 81.8232 143.763 81.5303 143.47L76.7574 138.697C76.4645 138.404 75.9896 138.404 75.6967 138.697C75.4038 138.99 75.4038 139.464 75.6967 139.757L79.9393 144L75.6967 148.243C75.4038 148.536 75.4038 149.01 75.6967 149.303C75.9896 149.596 76.4645 149.596 76.7574 149.303L81.5303 144.53ZM50.25 73.5L50.25 144L51.75 144L51.75 73.5L50.25 73.5ZM51 144.75L81 144.75L81 143.25L51 143.25L51 144.75Z" fill="#787878"/>
<path d="M215 146L215 146.75L215.75 146L215 146ZM215.53 72.4697C215.237 72.1768 214.763 72.1768 214.47 72.4697L209.697 77.2426C209.404 77.5355 209.404 78.0104 209.697 78.3033C209.99 78.5962 210.464 78.5962 210.757 78.3033L215 74.0607L219.243 78.3033C219.536 78.5962 220.01 78.5962 220.303 78.3033C220.596 78.0104 220.596 77.5355 220.303 77.2426L215.53 72.4697ZM180 146.75L215 146.75L215 145.25L180 145.25L180 146.75ZM215.75 146L215.75 73L214.25 73L214.25 146L215.75 146Z" fill="#787878"/>
<rect x="6" y="31" width="98" height="42" fill="#008865"/>
<rect x="6" y="31" width="98" height="42" fill="#008865"/>
<rect x="6" y="31" width="98" height="42" fill="#008865"/>
<path d="M26.1465 51.5352C26.1465 50.793 26.2441 50.1367 26.4395 49.5664C26.6387 48.9922 26.9121 48.5137 27.2598 48.1309C27.6074 47.7441 28.0195 47.4512 28.4961 47.252C28.9727 47.0527 29.4902 46.9531 30.0488 46.9531C30.5605 46.9531 31.0098 47.0215 31.3965 47.1582C31.7871 47.291 32.1191 47.4805 32.3926 47.7266C32.6699 47.9688 32.8984 48.2578 33.0781 48.5938C33.2578 48.9297 33.3965 49.3027 33.4941 49.7129L32.0645 50.1172C31.9746 49.8242 31.875 49.5684 31.7656 49.3496C31.6602 49.127 31.5273 48.9414 31.3672 48.793C31.207 48.6445 31.0195 48.5332 30.8047 48.459C30.5898 48.3809 30.334 48.3418 30.0371 48.3418C29.2832 48.3418 28.6973 48.6191 28.2793 49.1738C27.8652 49.7246 27.6582 50.5078 27.6582 51.5234C27.6582 52.5859 27.8691 53.3984 28.291 53.9609C28.7168 54.5195 29.3066 54.7988 30.0605 54.7988C30.6348 54.7988 31.0918 54.6504 31.4316 54.3535C31.7715 54.0527 32.0254 53.5664 32.1934 52.8945L33.623 53.2168C33.5137 53.6582 33.3613 54.0605 33.166 54.4238C32.9746 54.7871 32.7324 55.0977 32.4395 55.3555C32.1504 55.6094 31.8066 55.8086 31.4082 55.9531C31.0137 56.0977 30.5605 56.1699 30.0488 56.1699C29.4785 56.1699 28.9531 56.0723 28.4727 55.877C27.9961 55.6777 27.5859 55.3848 27.2422 54.998C26.8984 54.6113 26.6289 54.1309 26.4336 53.5566C26.2422 52.9785 26.1465 52.3047 26.1465 51.5352ZM34.5254 52.8184C34.5254 52.2363 34.6133 51.7363 34.7891 51.3184C34.9648 50.8965 35.1973 50.5527 35.4863 50.2871C35.7793 50.0176 36.1113 49.8203 36.4824 49.6953C36.8574 49.5703 37.2402 49.5078 37.6309 49.5078C38.0176 49.5078 38.3965 49.5703 38.7676 49.6953C39.1387 49.8203 39.4707 50.0176 39.7637 50.2871C40.0566 50.5527 40.293 50.8965 40.4727 51.3184C40.6523 51.7363 40.7422 52.2363 40.7422 52.8184C40.7422 53.4043 40.6523 53.9062 40.4727 54.3242C40.293 54.7383 40.0566 55.0801 39.7637 55.3496C39.4707 55.6152 39.1387 55.8125 38.7676 55.9414C38.3965 56.0703 38.0176 56.1348 37.6309 56.1348C37.248 56.1348 36.8711 56.0703 36.5 55.9414C36.1289 55.8125 35.7969 55.6152 35.5039 55.3496C35.2109 55.0801 34.9746 54.7383 34.7949 54.3242C34.6152 53.9062 34.5254 53.4043 34.5254 52.8184ZM36.0137 52.8184C36.0137 53.123 36.0449 53.4023 36.1074 53.6562C36.1738 53.9062 36.2715 54.123 36.4004 54.3066C36.5332 54.4902 36.7012 54.6348 36.9043 54.7402C37.1113 54.8457 37.3535 54.8984 37.6309 54.8984C38.1699 54.8984 38.5742 54.7168 38.8438 54.3535C39.1172 53.9863 39.2539 53.4746 39.2539 52.8184C39.2539 52.5254 39.2207 52.252 39.1543 51.998C39.0918 51.7441 38.9941 51.5273 38.8613 51.3477C38.7285 51.168 38.5605 51.0273 38.3574 50.9258C38.1543 50.8203 37.9121 50.7676 37.6309 50.7676C37.0957 50.7676 36.6914 50.9473 36.418 51.3066C36.1484 51.666 36.0137 52.1699 36.0137 52.8184ZM42.0547 56V49.6309H43.5312V50.6504C43.6523 50.5137 43.7891 50.377 43.9414 50.2402C44.0938 50.1035 44.2656 49.9824 44.457 49.877C44.6484 49.7676 44.8555 49.6797 45.0781 49.6133C45.3047 49.543 45.5488 49.5078 45.8105 49.5078C46.3965 49.5078 46.8574 49.6602 47.1934 49.9648C47.5293 50.2695 47.6973 50.7363 47.6973 51.3652V56H46.2207V51.7871C46.2207 51.4355 46.1445 51.1719 45.9922 50.9961C45.8398 50.8203 45.5957 50.7324 45.2598 50.7324C44.9316 50.7324 44.6289 50.8066 44.3516 50.9551C44.0781 51.1035 43.8047 51.3047 43.5312 51.5586V56H42.0547ZM48.6875 50.8027V49.6309H49.7891V47.4102H51.2656V49.6309H52.9121V50.8027H51.2656V53.9609C51.2656 54.3047 51.3301 54.5508 51.459 54.6992C51.5879 54.8477 51.8359 54.9219 52.2031 54.9219C52.3164 54.9219 52.4316 54.9141 52.5488 54.8984C52.6699 54.8789 52.7676 54.8574 52.8418 54.834V56C52.7988 56.0078 52.7344 56.0176 52.6484 56.0293C52.5664 56.041 52.4746 56.0508 52.373 56.0586C52.2754 56.0664 52.1719 56.0723 52.0625 56.0762C51.957 56.0801 51.8555 56.082 51.7578 56.082C51.3516 56.082 51.0195 56.0449 50.7617 55.9707C50.5078 55.8926 50.3086 55.7832 50.1641 55.6426C50.0195 55.498 49.9199 55.3164 49.8652 55.0977C49.8145 54.875 49.7891 54.6191 49.7891 54.3301V50.8027H48.6875ZM54.125 56V49.6309H55.6016V50.6738H55.625C55.8281 50.3535 56.1094 50.0801 56.4688 49.8535C56.8281 49.623 57.3105 49.5078 57.916 49.5078H58.0156L57.9688 50.8613C57.9258 50.8535 57.8574 50.8477 57.7637 50.8438C57.6738 50.8398 57.6094 50.8379 57.5703 50.8379C57.0898 50.8379 56.6934 50.9414 56.3809 51.1484C56.0684 51.3516 55.8086 51.625 55.6016 51.9688V56H54.125ZM58.4785 52.8184C58.4785 52.2363 58.5664 51.7363 58.7422 51.3184C58.918 50.8965 59.1504 50.5527 59.4395 50.2871C59.7324 50.0176 60.0645 49.8203 60.4355 49.6953C60.8105 49.5703 61.1934 49.5078 61.584 49.5078C61.9707 49.5078 62.3496 49.5703 62.7207 49.6953C63.0918 49.8203 63.4238 50.0176 63.7168 50.2871C64.0098 50.5527 64.2461 50.8965 64.4258 51.3184C64.6055 51.7363 64.6953 52.2363 64.6953 52.8184C64.6953 53.4043 64.6055 53.9062 64.4258 54.3242C64.2461 54.7383 64.0098 55.0801 63.7168 55.3496C63.4238 55.6152 63.0918 55.8125 62.7207 55.9414C62.3496 56.0703 61.9707 56.1348 61.584 56.1348C61.2012 56.1348 60.8242 56.0703 60.4531 55.9414C60.082 55.8125 59.75 55.6152 59.457 55.3496C59.1641 55.0801 58.9277 54.7383 58.748 54.3242C58.5684 53.9062 58.4785 53.4043 58.4785 52.8184ZM59.9668 52.8184C59.9668 53.123 59.998 53.4023 60.0605 53.6562C60.127 53.9062 60.2246 54.123 60.3535 54.3066C60.4863 54.4902 60.6543 54.6348 60.8574 54.7402C61.0645 54.8457 61.3066 54.8984 61.584 54.8984C62.123 54.8984 62.5273 54.7168 62.7969 54.3535C63.0703 53.9863 63.207 53.4746 63.207 52.8184C63.207 52.5254 63.1738 52.252 63.1074 51.998C63.0449 51.7441 62.9473 51.5273 62.8145 51.3477C62.6816 51.168 62.5137 51.0273 62.3105 50.9258C62.1074 50.8203 61.8652 50.7676 61.584 50.7676C61.0488 50.7676 60.6445 50.9473 60.3711 51.3066C60.1016 51.666 59.9668 52.1699 59.9668 52.8184ZM66.0605 56V47.1172H67.5488V56H66.0605ZM69.3301 56V47.1172H70.8184V56H69.3301ZM72.1777 52.8184C72.1777 52.2129 72.2734 51.7012 72.4648 51.2832C72.6562 50.8613 72.9004 50.5176 73.1973 50.252C73.4941 49.9863 73.8223 49.7969 74.1816 49.6836C74.541 49.5664 74.8848 49.5078 75.2129 49.5078C75.5723 49.5078 75.9199 49.5664 76.2559 49.6836C76.5918 49.7969 76.8887 49.9883 77.1465 50.2578C77.4082 50.5273 77.6172 50.8828 77.7734 51.3242C77.9297 51.7617 78.0078 52.3047 78.0078 52.9531V53.2988H73.6543C73.6855 53.877 73.8594 54.2988 74.1758 54.5645C74.4922 54.8262 74.8867 54.957 75.3594 54.957C75.7734 54.957 76.1133 54.8906 76.3789 54.7578C76.6484 54.625 76.9043 54.4434 77.1465 54.2129L77.9258 54.9805C77.5898 55.3477 77.2031 55.6328 76.7656 55.8359C76.332 56.0352 75.8262 56.1348 75.248 56.1348C74.8496 56.1348 74.4648 56.0723 74.0938 55.9473C73.7266 55.8223 73.4004 55.627 73.1152 55.3613C72.834 55.0918 72.6074 54.748 72.4355 54.3301C72.2637 53.9082 72.1777 53.4043 72.1777 52.8184ZM73.6777 52.1973H76.6543C76.5645 51.2051 76.0801 50.709 75.2012 50.709C75.0176 50.709 74.8438 50.7344 74.6797 50.7852C74.5156 50.8359 74.3633 50.9219 74.2227 51.043C74.082 51.1641 73.9629 51.3184 73.8652 51.5059C73.7715 51.6934 73.709 51.9238 73.6777 52.1973ZM79.3086 56V49.6309H80.7852V50.6738H80.8086C81.0117 50.3535 81.293 50.0801 81.6523 49.8535C82.0117 49.623 82.4941 49.5078 83.0996 49.5078H83.1992L83.1523 50.8613C83.1094 50.8535 83.041 50.8477 82.9473 50.8438C82.8574 50.8398 82.793 50.8379 82.7539 50.8379C82.2734 50.8379 81.877 50.9414 81.5645 51.1484C81.252 51.3516 80.9922 51.625 80.7852 51.9688V56H79.3086Z" fill="white"/>
<rect x="166" y="30" width="98" height="42" fill="#008865"/>
<rect x="166" y="30" width="98" height="42" fill="#008865"/>
<rect x="166" y="30" width="98" height="42" fill="#008865"/>
<path d="M54.8252 124.598H56.085L57.0273 128.431C57.099 128.73 57.1673 129.018 57.2324 129.295C57.3008 129.572 57.3626 129.856 57.418 130.149H57.4375C57.4896 129.863 57.5465 129.581 57.6084 129.305C57.6735 129.028 57.7435 128.74 57.8184 128.44L58.707 124.598H59.9082L60.8262 128.46C60.9076 128.772 60.9792 129.056 61.041 129.31C61.1061 129.563 61.1647 129.843 61.2168 130.149H61.2363C61.2624 129.99 61.2884 129.843 61.3145 129.71C61.3438 129.576 61.373 129.445 61.4023 129.314C61.4316 129.184 61.4626 129.054 61.4951 128.924C61.5309 128.794 61.5651 128.649 61.5977 128.489L62.5156 124.598H63.6875L61.7393 132H60.6455L59.3174 126.331H59.2979L57.8965 132H56.7979L54.8252 124.598ZM63.668 129.349C63.668 128.864 63.7412 128.447 63.8877 128.099C64.0342 127.747 64.2279 127.461 64.4688 127.239C64.7129 127.015 64.9896 126.85 65.2988 126.746C65.6113 126.642 65.9303 126.59 66.2559 126.59C66.5781 126.59 66.8939 126.642 67.2031 126.746C67.5124 126.85 67.7891 127.015 68.0332 127.239C68.2773 127.461 68.4743 127.747 68.624 128.099C68.7738 128.447 68.8486 128.864 68.8486 129.349C68.8486 129.837 68.7738 130.255 68.624 130.604C68.4743 130.949 68.2773 131.233 68.0332 131.458C67.7891 131.679 67.5124 131.844 67.2031 131.951C66.8939 132.059 66.5781 132.112 66.2559 132.112C65.9368 132.112 65.6227 132.059 65.3135 131.951C65.0042 131.844 64.7275 131.679 64.4834 131.458C64.2393 131.233 64.0423 130.949 63.8926 130.604C63.7428 130.255 63.668 129.837 63.668 129.349ZM64.9082 129.349C64.9082 129.603 64.9342 129.835 64.9863 130.047C65.0417 130.255 65.123 130.436 65.2305 130.589C65.3411 130.742 65.4811 130.862 65.6504 130.95C65.8229 131.038 66.0247 131.082 66.2559 131.082C66.7051 131.082 67.042 130.931 67.2666 130.628C67.4945 130.322 67.6084 129.896 67.6084 129.349C67.6084 129.104 67.5807 128.877 67.5254 128.665C67.4733 128.453 67.3919 128.273 67.2812 128.123C67.1706 127.973 67.0306 127.856 66.8613 127.771C66.6921 127.684 66.4902 127.64 66.2559 127.64C65.8099 127.64 65.473 127.789 65.2451 128.089C65.0205 128.388 64.9082 128.808 64.9082 129.349ZM69.9326 132V126.692H71.1631V127.562H71.1826C71.3519 127.295 71.5863 127.067 71.8857 126.878C72.1852 126.686 72.5872 126.59 73.0918 126.59H73.1748L73.1357 127.718C73.0999 127.711 73.043 127.706 72.9648 127.703C72.89 127.7 72.8363 127.698 72.8037 127.698C72.4033 127.698 72.0729 127.785 71.8125 127.957C71.5521 128.126 71.3356 128.354 71.1631 128.641V132H69.9326ZM74.0537 132V124.598H75.2842V129.012L77.2959 126.692H78.6436L76.915 128.631L78.7949 132H77.5059L76.1338 129.539L75.2842 130.472V132H74.0537Z" fill="#4A4A4A"/>
<path d="M224.479 84.2695C224.479 83.6771 224.555 83.1465 224.708 82.6777C224.864 82.2057 225.086 81.8053 225.372 81.4766C225.659 81.1445 226 80.8923 226.397 80.7197C226.798 80.5472 227.245 80.4609 227.74 80.4609C228.44 80.4609 229.037 80.64 229.532 80.998C230.03 81.3529 230.39 81.9502 230.611 82.79L229.449 83.0977C229.283 82.5443 229.065 82.1602 228.795 81.9453C228.525 81.7272 228.17 81.6182 227.73 81.6182C227.509 81.6182 227.281 81.6572 227.047 81.7354C226.816 81.8102 226.601 81.9486 226.402 82.1504C226.207 82.349 226.048 82.6175 225.924 82.9561C225.8 83.2913 225.738 83.7194 225.738 84.2402C225.738 84.7611 225.795 85.1989 225.909 85.5537C226.023 85.9053 226.174 86.1901 226.363 86.4082C226.555 86.623 226.773 86.7793 227.018 86.877C227.265 86.9714 227.519 87.0186 227.779 87.0186C228.274 87.0186 228.676 86.877 228.985 86.5938C229.295 86.3105 229.469 85.8955 229.508 85.3486H228.019V84.3379H230.709V88H229.679V86.9307H229.659C229.601 87.0641 229.516 87.2025 229.405 87.3457C229.295 87.4889 229.156 87.6191 228.99 87.7363C228.824 87.8535 228.629 87.9495 228.404 88.0244C228.183 88.1025 227.927 88.1416 227.638 88.1416C227.107 88.1416 226.645 88.0472 226.251 87.8584C225.857 87.6663 225.528 87.3994 225.265 87.0576C225.001 86.7126 224.804 86.304 224.674 85.832C224.544 85.3568 224.479 84.8359 224.479 84.2695ZM231.842 85.3486C231.842 84.8441 231.922 84.4176 232.081 84.0693C232.241 83.7178 232.444 83.4313 232.691 83.21C232.939 82.9886 233.212 82.8307 233.512 82.7363C233.811 82.6387 234.098 82.5898 234.371 82.5898C234.671 82.5898 234.96 82.6387 235.24 82.7363C235.52 82.8307 235.768 82.9902 235.982 83.2148C236.201 83.4395 236.375 83.7357 236.505 84.1035C236.635 84.4681 236.7 84.9206 236.7 85.4609V85.749H233.072C233.098 86.2308 233.243 86.5824 233.507 86.8037C233.771 87.0218 234.099 87.1309 234.493 87.1309C234.838 87.1309 235.121 87.0755 235.343 86.9648C235.567 86.8542 235.781 86.7028 235.982 86.5107L236.632 87.1504C236.352 87.4564 236.03 87.694 235.665 87.8633C235.304 88.0293 234.882 88.1123 234.4 88.1123C234.068 88.1123 233.748 88.0602 233.438 87.9561C233.132 87.8519 232.861 87.6891 232.623 87.4678C232.389 87.2432 232.2 86.9567 232.057 86.6084C231.913 86.2568 231.842 85.8369 231.842 85.3486ZM233.092 84.8311H235.572C235.497 84.0042 235.094 83.5908 234.361 83.5908C234.208 83.5908 234.063 83.612 233.927 83.6543C233.79 83.6966 233.663 83.7682 233.546 83.8691C233.429 83.9701 233.329 84.0986 233.248 84.2549C233.17 84.4111 233.118 84.6032 233.092 84.8311ZM237.286 83.6689V82.6924H238.204V80.8418H239.435V82.6924H240.807V83.6689H239.435V86.3008C239.435 86.5872 239.488 86.7923 239.596 86.916C239.703 87.0397 239.91 87.1016 240.216 87.1016C240.31 87.1016 240.406 87.0951 240.504 87.082C240.605 87.0658 240.686 87.0479 240.748 87.0283V88C240.712 88.0065 240.659 88.0146 240.587 88.0244C240.519 88.0342 240.442 88.0423 240.357 88.0488C240.276 88.0553 240.19 88.0602 240.099 88.0635C240.011 88.0667 239.926 88.0684 239.845 88.0684C239.506 88.0684 239.229 88.0374 239.015 87.9756C238.803 87.9105 238.637 87.8193 238.517 87.7021C238.396 87.5817 238.313 87.4303 238.268 87.248C238.225 87.0625 238.204 86.8493 238.204 86.6084V83.6689H237.286Z" fill="#4A4A4A"/>
<path d="M143 16V8.59766H144.27L147.771 13.8809H147.79V8.59766H148.952V16H147.81L144.182 10.6094H144.162V16H143ZM150.188 13.3486C150.188 12.8441 150.267 12.4176 150.427 12.0693C150.586 11.7178 150.79 11.4313 151.037 11.21C151.285 10.9886 151.558 10.8307 151.857 10.7363C152.157 10.6387 152.443 10.5898 152.717 10.5898C153.016 10.5898 153.306 10.6387 153.586 10.7363C153.866 10.8307 154.113 10.9902 154.328 11.2148C154.546 11.4395 154.72 11.7357 154.851 12.1035C154.981 12.4681 155.046 12.9206 155.046 13.4609V13.749H151.418C151.444 14.2308 151.589 14.5824 151.853 14.8037C152.116 15.0218 152.445 15.1309 152.839 15.1309C153.184 15.1309 153.467 15.0755 153.688 14.9648C153.913 14.8542 154.126 14.7028 154.328 14.5107L154.978 15.1504C154.698 15.4564 154.375 15.694 154.011 15.8633C153.649 16.0293 153.228 16.1123 152.746 16.1123C152.414 16.1123 152.093 16.0602 151.784 15.9561C151.478 15.8519 151.206 15.6891 150.969 15.4678C150.734 15.2432 150.546 14.9567 150.402 14.6084C150.259 14.2568 150.188 13.8369 150.188 13.3486ZM151.438 12.8311H153.918C153.843 12.0042 153.439 11.5908 152.707 11.5908C152.554 11.5908 152.409 11.612 152.272 11.6543C152.136 11.6966 152.009 11.7682 151.892 11.8691C151.774 11.9701 151.675 12.0986 151.594 12.2549C151.516 12.4111 151.464 12.6032 151.438 12.8311ZM155.485 10.6924H156.735L157.312 12.8896C157.354 13.0426 157.391 13.1842 157.424 13.3145C157.456 13.4447 157.487 13.5749 157.517 13.7051C157.549 13.8353 157.582 13.972 157.614 14.1152C157.647 14.2585 157.679 14.4131 157.712 14.5791H157.731C157.774 14.4001 157.811 14.2389 157.844 14.0957C157.876 13.9525 157.907 13.8158 157.937 13.6855C157.969 13.5553 158.003 13.4251 158.039 13.2949C158.075 13.1647 158.112 13.0231 158.151 12.8701L158.713 10.6924H159.714L160.305 12.9092C160.344 13.0557 160.381 13.194 160.417 13.3242C160.456 13.4544 160.49 13.5846 160.52 13.7148C160.549 13.8451 160.578 13.9801 160.607 14.1201C160.637 14.2601 160.673 14.4131 160.715 14.5791H160.734C160.773 14.4066 160.809 14.2503 160.842 14.1104C160.878 13.9704 160.91 13.8369 160.939 13.71C160.969 13.583 161.001 13.4577 161.037 13.334C161.076 13.2103 161.115 13.0752 161.154 12.9287L161.755 10.6924H162.873L161.291 16H160.144L159.182 12.3086H159.162L158.205 16H157.062L155.485 10.6924ZM122.219 28V20.5977H126.999V21.7598H123.469V23.6006H126.057V24.709H123.469V26.8623H127.199V28H122.219ZM128.19 28V22.6924H129.421V23.542C129.522 23.4281 129.636 23.3141 129.763 23.2002C129.89 23.0863 130.033 22.9854 130.192 22.8975C130.352 22.8063 130.524 22.7331 130.71 22.6777C130.899 22.6191 131.102 22.5898 131.32 22.5898C131.809 22.5898 132.193 22.7168 132.473 22.9707C132.753 23.2246 132.893 23.6136 132.893 24.1377V28H131.662V24.4893C131.662 24.1963 131.599 23.9766 131.472 23.8301C131.345 23.6836 131.141 23.6104 130.861 23.6104C130.588 23.6104 130.336 23.6722 130.104 23.7959C129.877 23.9196 129.649 24.0872 129.421 24.2988V28H128.19ZM133.928 25.3584C133.928 24.8994 133.983 24.4974 134.094 24.1523C134.204 23.804 134.357 23.516 134.553 23.2881C134.748 23.057 134.986 22.8828 135.266 22.7656C135.546 22.6484 135.856 22.5898 136.198 22.5898C136.485 22.5898 136.761 22.6468 137.028 22.7607C137.295 22.8747 137.525 23.0407 137.717 23.2588V22.6924H138.947V30.002H137.717V27.2822C137.525 27.5068 137.295 27.6956 137.028 27.8486C136.761 28.0016 136.428 28.0781 136.027 28.0781C135.728 28.0781 135.45 28.0244 135.192 27.917C134.935 27.8063 134.712 27.6387 134.523 27.4141C134.338 27.1862 134.191 26.903 134.084 26.5645C133.98 26.2227 133.928 25.8206 133.928 25.3584ZM135.158 25.3877C135.158 25.9574 135.269 26.3805 135.49 26.6572C135.715 26.9339 136.027 27.0723 136.428 27.0723C136.682 27.0723 136.923 27.0039 137.15 26.8672C137.382 26.7305 137.57 26.5742 137.717 26.3984V24.2695C137.551 24.0579 137.355 23.8952 137.131 23.7812C136.91 23.6673 136.688 23.6104 136.467 23.6104C136.001 23.6104 135.666 23.7585 135.461 24.0547C135.259 24.3509 135.158 24.7952 135.158 25.3877ZM140.271 26.501V22.6924H141.511V26.208C141.511 26.7842 141.774 27.0723 142.302 27.0723C142.575 27.0723 142.826 27.0088 143.054 26.8818C143.285 26.7549 143.514 26.5872 143.742 26.3789V22.6924H144.982V28H143.742V27.2822C143.654 27.3734 143.549 27.4678 143.425 27.5654C143.301 27.6631 143.16 27.7526 143 27.834C142.84 27.9121 142.66 27.9756 142.458 28.0244C142.259 28.0732 142.04 28.0977 141.799 28.0977C141.333 28.0977 140.962 27.9642 140.686 27.6973C140.409 27.4271 140.271 27.0283 140.271 26.501ZM146.066 25.3486C146.066 24.8441 146.146 24.4176 146.306 24.0693C146.465 23.7178 146.669 23.4313 146.916 23.21C147.163 22.9886 147.437 22.8307 147.736 22.7363C148.036 22.6387 148.322 22.5898 148.596 22.5898C148.895 22.5898 149.185 22.6387 149.465 22.7363C149.745 22.8307 149.992 22.9902 150.207 23.2148C150.425 23.4395 150.599 23.7357 150.729 24.1035C150.86 24.4681 150.925 24.9206 150.925 25.4609V25.749H147.297C147.323 26.2308 147.468 26.5824 147.731 26.8037C147.995 27.0218 148.324 27.1309 148.718 27.1309C149.063 27.1309 149.346 27.0755 149.567 26.9648C149.792 26.8542 150.005 26.7028 150.207 26.5107L150.856 27.1504C150.576 27.4564 150.254 27.694 149.89 27.8633C149.528 28.0293 149.107 28.1123 148.625 28.1123C148.293 28.1123 147.972 28.0602 147.663 27.9561C147.357 27.8519 147.085 27.6891 146.848 27.4678C146.613 27.2432 146.424 26.9567 146.281 26.6084C146.138 26.2568 146.066 25.8369 146.066 25.3486ZM147.316 24.8311H149.797C149.722 24.0042 149.318 23.5908 148.586 23.5908C148.433 23.5908 148.288 23.612 148.151 23.6543C148.015 23.6966 147.888 23.7682 147.771 23.8691C147.653 23.9701 147.554 24.0986 147.473 24.2549C147.395 24.4111 147.342 24.6032 147.316 24.8311ZM151.95 26.501V22.6924H153.19V26.208C153.19 26.7842 153.454 27.0723 153.981 27.0723C154.255 27.0723 154.506 27.0088 154.733 26.8818C154.965 26.7549 155.194 26.5872 155.422 26.3789V22.6924H156.662V28H155.422V27.2822C155.334 27.3734 155.228 27.4678 155.104 27.5654C154.981 27.6631 154.839 27.7526 154.68 27.834C154.52 27.9121 154.34 27.9756 154.138 28.0244C153.939 28.0732 153.719 28.0977 153.479 28.0977C153.013 28.0977 152.642 27.9642 152.365 27.6973C152.089 27.4271 151.95 27.0283 151.95 26.501ZM157.746 25.3486C157.746 24.8441 157.826 24.4176 157.985 24.0693C158.145 23.7178 158.348 23.4313 158.596 23.21C158.843 22.9886 159.117 22.8307 159.416 22.7363C159.715 22.6387 160.002 22.5898 160.275 22.5898C160.575 22.5898 160.865 22.6387 161.145 22.7363C161.424 22.8307 161.672 22.9902 161.887 23.2148C162.105 23.4395 162.279 23.7357 162.409 24.1035C162.539 24.4681 162.604 24.9206 162.604 25.4609V25.749H158.977C159.003 26.2308 159.147 26.5824 159.411 26.8037C159.675 27.0218 160.004 27.1309 160.397 27.1309C160.743 27.1309 161.026 27.0755 161.247 26.9648C161.472 26.8542 161.685 26.7028 161.887 26.5107L162.536 27.1504C162.256 27.4564 161.934 27.694 161.569 27.8633C161.208 28.0293 160.786 28.1123 160.305 28.1123C159.973 28.1123 159.652 28.0602 159.343 27.9561C159.037 27.8519 158.765 27.6891 158.527 27.4678C158.293 27.2432 158.104 26.9567 157.961 26.6084C157.818 26.2568 157.746 25.8369 157.746 25.3486ZM158.996 24.8311H161.477C161.402 24.0042 160.998 23.5908 160.266 23.5908C160.113 23.5908 159.968 23.612 159.831 23.6543C159.694 23.6966 159.567 23.7682 159.45 23.8691C159.333 23.9701 159.234 24.0986 159.152 24.2549C159.074 24.4111 159.022 24.6032 158.996 24.8311ZM140.646 38.2617L141.638 37.7393C142.071 38.5986 142.751 39.0283 143.679 39.0283C144.131 39.0283 144.496 38.9535 144.772 38.8037C145.049 38.654 145.188 38.4098 145.188 38.0713C145.188 37.9118 145.157 37.7718 145.095 37.6514C145.036 37.5309 144.94 37.4202 144.807 37.3193C144.673 37.2184 144.499 37.1257 144.284 37.041C144.073 36.9531 143.814 36.862 143.508 36.7676C143.146 36.6634 142.81 36.556 142.497 36.4453C142.185 36.3346 141.911 36.1979 141.677 36.0352C141.442 35.8724 141.258 35.6722 141.125 35.4346C140.995 35.1969 140.93 34.9023 140.93 34.5508C140.93 34.2383 140.99 33.9535 141.11 33.6963C141.234 33.4391 141.407 33.2194 141.628 33.0371C141.853 32.8516 142.119 32.71 142.429 32.6123C142.741 32.5114 143.085 32.4609 143.459 32.4609C143.824 32.4609 144.151 32.5033 144.44 32.5879C144.73 32.6693 144.989 32.7832 145.217 32.9297C145.445 33.0762 145.642 33.2454 145.808 33.4375C145.974 33.6263 146.114 33.8298 146.228 34.0479L145.319 34.6777C145.098 34.3066 144.829 34.0348 144.514 33.8623C144.201 33.6865 143.846 33.5986 143.449 33.5986C143.036 33.5986 142.717 33.6702 142.492 33.8135C142.268 33.9567 142.155 34.165 142.155 34.4385C142.155 34.6143 142.188 34.7624 142.253 34.8828C142.321 35 142.427 35.1074 142.57 35.2051C142.714 35.3027 142.896 35.3923 143.117 35.4736C143.339 35.5518 143.599 35.6331 143.898 35.7178C144.243 35.8187 144.569 35.9294 144.875 36.0498C145.184 36.1702 145.453 36.3151 145.681 36.4844C145.912 36.6536 146.092 36.8587 146.223 37.0996C146.353 37.3405 146.418 37.6335 146.418 37.9785C146.418 38.278 146.354 38.5596 146.228 38.8232C146.101 39.0869 145.918 39.318 145.681 39.5166C145.446 39.7119 145.155 39.8649 144.807 39.9756C144.462 40.0863 144.068 40.1416 143.625 40.1416C142.893 40.1416 142.271 39.9691 141.76 39.624C141.252 39.2757 140.881 38.8216 140.646 38.2617ZM147.126 35.6689V34.6924H148.044V32.8418H149.274V34.6924H150.646V35.6689H149.274V38.3008C149.274 38.5872 149.328 38.7923 149.436 38.916C149.543 39.0397 149.75 39.1016 150.056 39.1016C150.15 39.1016 150.246 39.0951 150.344 39.082C150.445 39.0658 150.526 39.0479 150.588 39.0283V40C150.552 40.0065 150.498 40.0146 150.427 40.0244C150.358 40.0342 150.282 40.0423 150.197 40.0488C150.116 40.0553 150.03 40.0602 149.938 40.0635C149.851 40.0667 149.766 40.0684 149.685 40.0684C149.346 40.0684 149.069 40.0374 148.854 39.9756C148.643 39.9105 148.477 39.8193 148.356 39.7021C148.236 39.5817 148.153 39.4303 148.107 39.248C148.065 39.0625 148.044 38.8493 148.044 38.6084V35.6689H147.126ZM151.311 37.3486C151.311 36.8636 151.384 36.4469 151.53 36.0986C151.677 35.7471 151.87 35.4606 152.111 35.2393C152.355 35.0146 152.632 34.8503 152.941 34.7461C153.254 34.6419 153.573 34.5898 153.898 34.5898C154.221 34.5898 154.536 34.6419 154.846 34.7461C155.155 34.8503 155.432 35.0146 155.676 35.2393C155.92 35.4606 156.117 35.7471 156.267 36.0986C156.416 36.4469 156.491 36.8636 156.491 37.3486C156.491 37.8369 156.416 38.2552 156.267 38.6035C156.117 38.9486 155.92 39.2334 155.676 39.458C155.432 39.6794 155.155 39.8438 154.846 39.9512C154.536 40.0586 154.221 40.1123 153.898 40.1123C153.579 40.1123 153.265 40.0586 152.956 39.9512C152.647 39.8438 152.37 39.6794 152.126 39.458C151.882 39.2334 151.685 38.9486 151.535 38.6035C151.385 38.2552 151.311 37.8369 151.311 37.3486ZM152.551 37.3486C152.551 37.6025 152.577 37.8353 152.629 38.0469C152.684 38.2552 152.766 38.4359 152.873 38.5889C152.984 38.7419 153.124 38.8623 153.293 38.9502C153.465 39.0381 153.667 39.082 153.898 39.082C154.348 39.082 154.685 38.9307 154.909 38.6279C155.137 38.3219 155.251 37.8955 155.251 37.3486C155.251 37.1045 155.223 36.8766 155.168 36.665C155.116 36.4535 155.035 36.2728 154.924 36.123C154.813 35.9733 154.673 35.8561 154.504 35.7715C154.335 35.6836 154.133 35.6396 153.898 35.6396C153.452 35.6396 153.116 35.7894 152.888 36.0889C152.663 36.3883 152.551 36.8083 152.551 37.3486ZM157.575 42.002V34.6924H158.806V35.3906C158.978 35.1758 159.203 34.9886 159.479 34.8291C159.756 34.6696 160.095 34.5898 160.495 34.5898C160.795 34.5898 161.073 34.6468 161.33 34.7607C161.587 34.8747 161.809 35.0472 161.994 35.2783C162.183 35.5062 162.329 35.7926 162.434 36.1377C162.541 36.4795 162.595 36.8799 162.595 37.3389C162.595 37.8011 162.539 38.2031 162.429 38.5449C162.321 38.8867 162.168 39.1715 161.97 39.3994C161.774 39.6273 161.537 39.7982 161.257 39.9121C160.977 40.0228 160.668 40.0781 160.329 40.0781C160.039 40.0781 159.761 40.0228 159.494 39.9121C159.23 39.7982 159.001 39.6305 158.806 39.4092V42.002H157.575ZM158.806 38.4424C158.972 38.654 159.167 38.8167 159.392 38.9307C159.616 39.0446 159.838 39.1016 160.056 39.1016C160.524 39.1016 160.86 38.9583 161.062 38.6719C161.267 38.3854 161.369 37.9443 161.369 37.3486C161.369 36.7822 161.257 36.3558 161.032 36.0693C160.808 35.7829 160.495 35.6396 160.095 35.6396C159.844 35.6396 159.603 35.708 159.372 35.8447C159.141 35.9814 158.952 36.1361 158.806 36.3086V38.4424Z" fill="#4A4A4A"/>
<path d="M158.947 79V77.9014H160.31V72.8721C160.127 72.9632 159.911 73.043 159.66 73.1113C159.413 73.1764 159.182 73.209 158.967 73.209V72.0811C159.253 72.068 159.514 72.0241 159.748 71.9492C159.982 71.8711 160.183 71.7539 160.349 71.5977H161.525V77.9014H162.736V79H158.947Z" fill="#979797"/>
<path d="M158.947 79V77.9014H160.31V72.8721C160.127 72.9632 159.911 73.043 159.66 73.1113C159.413 73.1764 159.182 73.209 158.967 73.209V72.0811C159.253 72.068 159.514 72.0241 159.748 71.9492C159.982 71.8711 160.183 71.7539 160.349 71.5977H161.525V77.9014H162.736V79H158.947Z" fill="#979797"/>
<path d="M158.947 79V77.9014H160.31V72.8721C160.127 72.9632 159.911 73.043 159.66 73.1113C159.413 73.1764 159.182 73.209 158.967 73.209V72.0811C159.253 72.068 159.514 72.0241 159.748 71.9492C159.982 71.8711 160.183 71.7539 160.349 71.5977H161.525V77.9014H162.736V79H158.947Z" fill="#979797"/>
<path d="M108.947 79V77.9014H110.31V72.8721C110.127 72.9632 109.911 73.043 109.66 73.1113C109.413 73.1764 109.182 73.209 108.967 73.209V72.0811C109.253 72.068 109.514 72.0241 109.748 71.9492C109.982 71.8711 110.183 71.7539 110.349 71.5977H111.525V77.9014H112.736V79H108.947Z" fill="#979797"/>
<path d="M108.947 79V77.9014H110.31V72.8721C110.127 72.9632 109.911 73.043 109.66 73.1113C109.413 73.1764 109.182 73.209 108.967 73.209V72.0811C109.253 72.068 109.514 72.0241 109.748 71.9492C109.982 71.8711 110.183 71.7539 110.349 71.5977H111.525V77.9014H112.736V79H108.947Z" fill="#979797"/>
<path d="M108.947 79V77.9014H110.31V72.8721C110.127 72.9632 109.911 73.043 109.66 73.1113C109.413 73.1764 109.182 73.209 108.967 73.209V72.0811C109.253 72.068 109.514 72.0241 109.748 71.9492C109.982 71.8711 110.183 71.7539 110.349 71.5977H111.525V77.9014H112.736V79H108.947Z" fill="#979797"/>
<path d="M74.2734 158.059V157.282L76.002 157.399L75.0107 155.979L75.7236 155.559L76.4609 157.131L77.2031 155.559L77.9111 155.979L76.9297 157.399L78.6533 157.282V158.059L76.9297 157.941L77.9111 159.362L77.2129 159.768L76.4609 158.21L75.7236 159.768L75.0107 159.362L75.9922 157.941L74.2734 158.059Z" fill="#979797"/>
<path d="M74.2734 158.059V157.282L76.002 157.399L75.0107 155.979L75.7236 155.559L76.4609 157.131L77.2031 155.559L77.9111 155.979L76.9297 157.399L78.6533 157.282V158.059L76.9297 157.941L77.9111 159.362L77.2129 159.768L76.4609 158.21L75.7236 159.768L75.0107 159.362L75.9922 157.941L74.2734 158.059Z" fill="#979797"/>
<path d="M74.2734 158.059V157.282L76.002 157.399L75.0107 155.979L75.7236 155.559L76.4609 157.131L77.2031 155.559L77.9111 155.979L76.9297 157.399L78.6533 157.282V158.059L76.9297 157.941L77.9111 159.362L77.2129 159.768L76.4609 158.21L75.7236 159.768L75.0107 159.362L75.9922 157.941L74.2734 158.059Z" fill="#979797"/>
<rect x="166" y="30" width="98" height="42" fill="#008865"/>
<rect x="166" y="30" width="98" height="42" fill="#008865"/>
<rect x="166" y="30" width="98" height="42" fill="#008865"/>
<path d="M181.117 46.1172H182.629L183.76 50.7168C183.846 51.0762 183.928 51.4219 184.006 51.7539C184.088 52.0859 184.162 52.4277 184.229 52.7793H184.252C184.314 52.4355 184.383 52.0977 184.457 51.7656C184.535 51.4336 184.619 51.0879 184.709 50.7285L185.775 46.1172H187.217L188.318 50.752C188.416 51.127 188.502 51.4668 188.576 51.7715C188.654 52.0762 188.725 52.4121 188.787 52.7793H188.811C188.842 52.5879 188.873 52.4121 188.904 52.252C188.939 52.0918 188.975 51.9336 189.01 51.7773C189.045 51.6211 189.082 51.4648 189.121 51.3086C189.164 51.1523 189.205 50.9785 189.244 50.7871L190.346 46.1172H191.752L189.414 55H188.102L186.508 48.1973H186.484L184.803 55H183.484L181.117 46.1172ZM191.729 51.8184C191.729 51.2363 191.816 50.7363 191.992 50.3184C192.168 49.8965 192.4 49.5527 192.689 49.2871C192.982 49.0176 193.314 48.8203 193.686 48.6953C194.061 48.5703 194.443 48.5078 194.834 48.5078C195.221 48.5078 195.6 48.5703 195.971 48.6953C196.342 48.8203 196.674 49.0176 196.967 49.2871C197.26 49.5527 197.496 49.8965 197.676 50.3184C197.855 50.7363 197.945 51.2363 197.945 51.8184C197.945 52.4043 197.855 52.9062 197.676 53.3242C197.496 53.7383 197.26 54.0801 196.967 54.3496C196.674 54.6152 196.342 54.8125 195.971 54.9414C195.6 55.0703 195.221 55.1348 194.834 55.1348C194.451 55.1348 194.074 55.0703 193.703 54.9414C193.332 54.8125 193 54.6152 192.707 54.3496C192.414 54.0801 192.178 53.7383 191.998 53.3242C191.818 52.9062 191.729 52.4043 191.729 51.8184ZM193.217 51.8184C193.217 52.123 193.248 52.4023 193.311 52.6562C193.377 52.9062 193.475 53.123 193.604 53.3066C193.736 53.4902 193.904 53.6348 194.107 53.7402C194.314 53.8457 194.557 53.8984 194.834 53.8984C195.373 53.8984 195.777 53.7168 196.047 53.3535C196.32 52.9863 196.457 52.4746 196.457 51.8184C196.457 51.5254 196.424 51.252 196.357 50.998C196.295 50.7441 196.197 50.5273 196.064 50.3477C195.932 50.168 195.764 50.0273 195.561 49.9258C195.357 49.8203 195.115 49.7676 194.834 49.7676C194.299 49.7676 193.895 49.9473 193.621 50.3066C193.352 50.666 193.217 51.1699 193.217 51.8184ZM199.246 55V48.6309H200.723V49.6738H200.746C200.949 49.3535 201.23 49.0801 201.59 48.8535C201.949 48.623 202.432 48.5078 203.037 48.5078H203.137L203.09 49.8613C203.047 49.8535 202.979 49.8477 202.885 49.8438C202.795 49.8398 202.73 49.8379 202.691 49.8379C202.211 49.8379 201.814 49.9414 201.502 50.1484C201.189 50.3516 200.93 50.625 200.723 50.9688V55H199.246ZM204.191 55V46.1172H205.668V51.4141L208.082 48.6309H209.699L207.625 50.957L209.881 55H208.334L206.688 52.0469L205.668 53.166V55H204.191ZM213.701 50.5586C213.701 49.8164 213.809 49.1582 214.023 48.584C214.242 48.0059 214.535 47.5234 214.902 47.1367C215.27 46.7461 215.697 46.4512 216.186 46.252C216.674 46.0527 217.186 45.9531 217.721 45.9531C218.26 45.9531 218.768 46.0527 219.244 46.252C219.725 46.4512 220.148 46.7461 220.516 47.1367C220.887 47.5234 221.18 48.0059 221.395 48.584C221.609 49.1582 221.717 49.8164 221.717 50.5586C221.717 51.2227 221.631 51.8203 221.459 52.3516C221.287 52.8789 221.053 53.334 220.756 53.7168C220.463 54.0996 220.111 54.4082 219.701 54.6426C219.295 54.873 218.859 55.0234 218.395 55.0938C218.441 55.3125 218.516 55.4824 218.617 55.6035C218.719 55.7285 218.846 55.8242 218.998 55.8906C219.154 55.9609 219.338 56.0039 219.549 56.0195C219.764 56.0352 220.012 56.043 220.293 56.043H220.902V57.3145H219.678C219.205 57.3145 218.797 57.2578 218.453 57.1445C218.109 57.0352 217.82 56.8809 217.586 56.6816C217.355 56.4824 217.18 56.2441 217.059 55.9668C216.941 55.6895 216.879 55.3867 216.871 55.0586C216.422 54.9805 216.004 54.8223 215.617 54.584C215.23 54.3418 214.895 54.0312 214.609 53.6523C214.324 53.2695 214.102 52.8184 213.941 52.2988C213.781 51.7793 213.701 51.1992 213.701 50.5586ZM215.213 50.5586C215.213 51.0781 215.273 51.543 215.395 51.9531C215.516 52.3594 215.686 52.7031 215.904 52.9844C216.123 53.2656 216.387 53.4785 216.695 53.623C217.004 53.7637 217.346 53.834 217.721 53.834C218.092 53.834 218.43 53.7637 218.734 53.623C219.043 53.4785 219.305 53.2656 219.52 52.9844C219.738 52.7031 219.906 52.3594 220.023 51.9531C220.145 51.543 220.205 51.0781 220.205 50.5586C220.205 50.0391 220.145 49.5781 220.023 49.1758C219.906 48.7695 219.738 48.4316 219.52 48.1621C219.305 47.8887 219.043 47.6816 218.734 47.541C218.43 47.4004 218.092 47.3301 217.721 47.3301C216.963 47.3301 216.355 47.6074 215.898 48.1621C215.441 48.7129 215.213 49.5117 215.213 50.5586ZM222.953 53.2012V48.6309H224.441V52.8496C224.441 53.541 224.758 53.8867 225.391 53.8867C225.719 53.8867 226.02 53.8105 226.293 53.6582C226.57 53.5059 226.846 53.3047 227.119 53.0547V48.6309H228.607V55H227.119V54.1387C227.014 54.248 226.887 54.3613 226.738 54.4785C226.59 54.5957 226.42 54.7031 226.229 54.8008C226.037 54.8945 225.82 54.9707 225.578 55.0293C225.34 55.0879 225.076 55.1172 224.787 55.1172C224.229 55.1172 223.783 54.957 223.451 54.6367C223.119 54.3125 222.953 53.834 222.953 53.2012ZM229.908 51.8184C229.908 51.2129 230.004 50.7012 230.195 50.2832C230.387 49.8613 230.631 49.5176 230.928 49.252C231.225 48.9863 231.553 48.7969 231.912 48.6836C232.271 48.5664 232.615 48.5078 232.943 48.5078C233.303 48.5078 233.65 48.5664 233.986 48.6836C234.322 48.7969 234.619 48.9883 234.877 49.2578C235.139 49.5273 235.348 49.8828 235.504 50.3242C235.66 50.7617 235.738 51.3047 235.738 51.9531V52.2988H231.385C231.416 52.877 231.59 53.2988 231.906 53.5645C232.223 53.8262 232.617 53.957 233.09 53.957C233.504 53.957 233.844 53.8906 234.109 53.7578C234.379 53.625 234.635 53.4434 234.877 53.2129L235.656 53.9805C235.32 54.3477 234.934 54.6328 234.496 54.8359C234.062 55.0352 233.557 55.1348 232.979 55.1348C232.58 55.1348 232.195 55.0723 231.824 54.9473C231.457 54.8223 231.131 54.627 230.846 54.3613C230.564 54.0918 230.338 53.748 230.166 53.3301C229.994 52.9082 229.908 52.4043 229.908 51.8184ZM231.408 51.1973H234.385C234.295 50.2051 233.811 49.709 232.932 49.709C232.748 49.709 232.574 49.7344 232.41 49.7852C232.246 49.8359 232.094 49.9219 231.953 50.043C231.812 50.1641 231.693 50.3184 231.596 50.5059C231.502 50.6934 231.439 50.9238 231.408 51.1973ZM236.969 53.2012V48.6309H238.457V52.8496C238.457 53.541 238.773 53.8867 239.406 53.8867C239.734 53.8867 240.035 53.8105 240.309 53.6582C240.586 53.5059 240.861 53.3047 241.135 53.0547V48.6309H242.623V55H241.135V54.1387C241.029 54.248 240.902 54.3613 240.754 54.4785C240.605 54.5957 240.436 54.7031 240.244 54.8008C240.053 54.8945 239.836 54.9707 239.594 55.0293C239.355 55.0879 239.092 55.1172 238.803 55.1172C238.244 55.1172 237.799 54.957 237.467 54.6367C237.135 54.3125 236.969 53.834 236.969 53.2012ZM243.924 51.8184C243.924 51.2129 244.02 50.7012 244.211 50.2832C244.402 49.8613 244.646 49.5176 244.943 49.252C245.24 48.9863 245.568 48.7969 245.928 48.6836C246.287 48.5664 246.631 48.5078 246.959 48.5078C247.318 48.5078 247.666 48.5664 248.002 48.6836C248.338 48.7969 248.635 48.9883 248.893 49.2578C249.154 49.5273 249.363 49.8828 249.52 50.3242C249.676 50.7617 249.754 51.3047 249.754 51.9531V52.2988H245.4C245.432 52.877 245.605 53.2988 245.922 53.5645C246.238 53.8262 246.633 53.957 247.105 53.957C247.52 53.957 247.859 53.8906 248.125 53.7578C248.395 53.625 248.65 53.4434 248.893 53.2129L249.672 53.9805C249.336 54.3477 248.949 54.6328 248.512 54.8359C248.078 55.0352 247.572 55.1348 246.994 55.1348C246.596 55.1348 246.211 55.0723 245.84 54.9473C245.473 54.8223 245.146 54.627 244.861 54.3613C244.58 54.0918 244.354 53.748 244.182 53.3301C244.01 52.9082 243.924 52.4043 243.924 51.8184ZM245.424 51.1973H248.4C248.311 50.2051 247.826 49.709 246.947 49.709C246.764 49.709 246.59 49.7344 246.426 49.7852C246.262 49.8359 246.109 49.9219 245.969 50.043C245.828 50.1641 245.709 50.3184 245.611 50.5059C245.518 50.6934 245.455 50.9238 245.424 51.1973Z" fill="white"/>
<rect x="82" y="123" width="98" height="42" fill="#008865"/>
<rect x="82" y="123" width="98" height="42" fill="#008865"/>
<rect x="82" y="123" width="98" height="42" fill="#008865"/>
<path d="M111.461 139.117H112.973L114.104 143.717C114.189 144.076 114.271 144.422 114.35 144.754C114.432 145.086 114.506 145.428 114.572 145.779H114.596C114.658 145.436 114.727 145.098 114.801 144.766C114.879 144.434 114.963 144.088 115.053 143.729L116.119 139.117H117.561L118.662 143.752C118.76 144.127 118.846 144.467 118.92 144.771C118.998 145.076 119.068 145.412 119.131 145.779H119.154C119.186 145.588 119.217 145.412 119.248 145.252C119.283 145.092 119.318 144.934 119.354 144.777C119.389 144.621 119.426 144.465 119.465 144.309C119.508 144.152 119.549 143.979 119.588 143.787L120.689 139.117H122.096L119.758 148H118.445L116.852 141.197H116.828L115.146 148H113.828L111.461 139.117ZM122.072 144.818C122.072 144.236 122.16 143.736 122.336 143.318C122.512 142.896 122.744 142.553 123.033 142.287C123.326 142.018 123.658 141.82 124.029 141.695C124.404 141.57 124.787 141.508 125.178 141.508C125.564 141.508 125.943 141.57 126.314 141.695C126.686 141.82 127.018 142.018 127.311 142.287C127.604 142.553 127.84 142.896 128.02 143.318C128.199 143.736 128.289 144.236 128.289 144.818C128.289 145.404 128.199 145.906 128.02 146.324C127.84 146.738 127.604 147.08 127.311 147.35C127.018 147.615 126.686 147.812 126.314 147.941C125.943 148.07 125.564 148.135 125.178 148.135C124.795 148.135 124.418 148.07 124.047 147.941C123.676 147.812 123.344 147.615 123.051 147.35C122.758 147.08 122.521 146.738 122.342 146.324C122.162 145.906 122.072 145.404 122.072 144.818ZM123.561 144.818C123.561 145.123 123.592 145.402 123.654 145.656C123.721 145.906 123.818 146.123 123.947 146.307C124.08 146.49 124.248 146.635 124.451 146.74C124.658 146.846 124.9 146.898 125.178 146.898C125.717 146.898 126.121 146.717 126.391 146.354C126.664 145.986 126.801 145.475 126.801 144.818C126.801 144.525 126.768 144.252 126.701 143.998C126.639 143.744 126.541 143.527 126.408 143.348C126.275 143.168 126.107 143.027 125.904 142.926C125.701 142.82 125.459 142.768 125.178 142.768C124.643 142.768 124.238 142.947 123.965 143.307C123.695 143.666 123.561 144.17 123.561 144.818ZM129.59 148V141.631H131.066V142.674H131.09C131.293 142.354 131.574 142.08 131.934 141.854C132.293 141.623 132.775 141.508 133.381 141.508H133.48L133.434 142.861C133.391 142.854 133.322 142.848 133.229 142.844C133.139 142.84 133.074 142.838 133.035 142.838C132.555 142.838 132.158 142.941 131.846 143.148C131.533 143.352 131.273 143.625 131.066 143.969V148H129.59ZM134.535 148V139.117H136.012V144.414L138.426 141.631H140.043L137.969 143.957L140.225 148H138.678L137.031 145.047L136.012 146.166V148H134.535ZM140.635 144.818C140.635 144.213 140.73 143.701 140.922 143.283C141.113 142.861 141.357 142.518 141.654 142.252C141.951 141.986 142.279 141.797 142.639 141.684C142.998 141.566 143.342 141.508 143.67 141.508C144.029 141.508 144.377 141.566 144.713 141.684C145.049 141.797 145.346 141.988 145.604 142.258C145.865 142.527 146.074 142.883 146.23 143.324C146.387 143.762 146.465 144.305 146.465 144.953V145.299H142.111C142.143 145.877 142.316 146.299 142.633 146.564C142.949 146.826 143.344 146.957 143.816 146.957C144.23 146.957 144.57 146.891 144.836 146.758C145.105 146.625 145.361 146.443 145.604 146.213L146.383 146.98C146.047 147.348 145.66 147.633 145.223 147.836C144.789 148.035 144.283 148.135 143.705 148.135C143.307 148.135 142.922 148.072 142.551 147.947C142.184 147.822 141.857 147.627 141.572 147.361C141.291 147.092 141.064 146.748 140.893 146.33C140.721 145.908 140.635 145.404 140.635 144.818ZM142.135 144.197H145.111C145.021 143.205 144.537 142.709 143.658 142.709C143.475 142.709 143.301 142.734 143.137 142.785C142.973 142.836 142.82 142.922 142.68 143.043C142.539 143.164 142.42 143.318 142.322 143.506C142.229 143.693 142.166 143.924 142.135 144.197ZM147.766 148V141.631H149.242V142.674H149.266C149.469 142.354 149.75 142.08 150.109 141.854C150.469 141.623 150.951 141.508 151.557 141.508H151.656L151.609 142.861C151.566 142.854 151.498 142.848 151.404 142.844C151.314 142.84 151.25 142.838 151.211 142.838C150.73 142.838 150.334 142.941 150.021 143.148C149.709 143.352 149.449 143.625 149.242 143.969V148H147.766Z" fill="white"/>
</svg>
