<svg width="180" height="177" viewBox="0 0 180 177" fill="none" xmlns="http://www.w3.org/2000/svg">
<path fill-rule="evenodd" clip-rule="evenodd" d="M87.6466 1.06868C88.7434 0.551081 90.021 0.551079 91.1178 1.06868L157.505 32.4C158.602 32.9176 159.399 33.8964 159.67 35.0595L176.066 105.46C176.337 106.623 176.053 107.844 175.294 108.776L129.352 165.233C128.593 166.166 127.442 166.709 126.225 166.709H52.5398C51.3224 166.709 50.1714 166.166 49.4124 165.233L3.4707 108.776C2.71174 107.844 2.42744 106.623 2.69832 105.46L19.0947 35.0595C19.3656 33.8964 20.1622 32.9176 21.2588 32.4L87.6466 1.06868Z" fill="#009F76"/>
<mask id="mask0" mask-type="alpha" maskUnits="userSpaceOnUse" x="2" y="0" width="175" height="167">
<path fill-rule="evenodd" clip-rule="evenodd" d="M87.6466 1.06868C88.7434 0.551081 90.021 0.551079 91.1178 1.06868L157.505 32.4C158.602 32.9176 159.399 33.8964 159.67 35.0595L176.066 105.46C176.337 106.623 176.053 107.844 175.294 108.776L129.352 165.233C128.593 166.166 127.442 166.709 126.225 166.709H52.5398C51.3224 166.709 50.1714 166.166 49.4124 165.233L3.4707 108.776C2.71174 107.844 2.42744 106.623 2.69832 105.46L19.0947 35.0595C19.3656 33.8964 20.1622 32.9176 21.2588 32.4L87.6466 1.06868Z" fill="white"/>
</mask>
<g mask="url(#mask0)">
<path opacity="0.289629" fill-rule="evenodd" clip-rule="evenodd" d="M-33.2947 106.864L63.6505 49.1546L128.947 114.66L51.4669 181.631L-33.2947 106.864Z" fill="#333333"/>
</g>
<path fill-rule="evenodd" clip-rule="evenodd" d="M113.276 46.8831C113.554 47.5663 113.703 48.3043 113.703 49.0618V76.3031C113.703 78.2864 112.682 80.1361 110.989 81.2225L90.807 94.1718C88.8108 95.4527 86.23 95.4527 84.234 94.1718L64.0516 81.2225C62.6432 80.3187 61.7004 78.8869 61.4232 77.2892L113.276 46.8831Z" fill="url(#paint0_linear)"/>
<path fill-rule="evenodd" clip-rule="evenodd" d="M113.549 81.2167C113.087 81.9934 112.442 82.6679 111.651 83.1755L91.4689 96.1248C89.4727 97.4057 86.8919 97.4057 84.8957 96.1248L64.7135 83.1755C63.0203 82.0891 62.0001 80.2394 62.0001 78.2561V51.0146C62.0001 50.2559 62.1495 49.5166 62.4287 48.8322L113.549 81.2167Z" fill="url(#paint1_linear)"/>
<path fill-rule="evenodd" clip-rule="evenodd" d="M48.6069 67.7018C48.2147 68.4909 48.0011 69.3688 48.0011 70.2766V110.527C48.0011 112.628 49.1447 114.569 51.0011 115.619L86.5703 135.744C88.4267 136.795 90.7139 136.795 92.5703 135.744L128.139 115.619C129.41 114.901 130.346 113.765 130.811 112.446L48.6069 67.7018Z" fill="url(#paint2_linear)"/>
<path fill-rule="evenodd" clip-rule="evenodd" d="M49.0042 113.781C49.508 114.525 50.1862 115.158 51.0018 115.62L86.571 135.745C88.4274 136.795 90.7146 136.795 92.571 135.745L128.14 115.62C129.997 114.569 131.14 112.628 131.14 110.527V70.2769C131.14 69.5294 130.995 68.8022 130.725 68.128L49.0042 113.781Z" fill="url(#paint3_linear)"/>
<mask id="mask1" mask-type="alpha" maskUnits="userSpaceOnUse" x="85" y="143" width="88" height="21">
<path d="M85.4766 158.005C85.4766 157.677 85.5723 157.404 85.7637 157.185C85.9619 156.966 86.2559 156.857 86.6455 156.857C87.0352 156.857 87.3291 156.966 87.5273 157.185C87.7324 157.404 87.835 157.677 87.835 158.005C87.835 158.32 87.7324 158.583 87.5273 158.795C87.3291 159.007 87.0352 159.113 86.6455 159.113C86.2559 159.113 85.9619 159.007 85.7637 158.795C85.5723 158.583 85.4766 158.32 85.4766 158.005ZM90.5112 153.36C90.5112 151.658 90.9146 150.291 91.7212 149.259C92.5278 148.22 93.584 147.7 94.8896 147.7C96.1885 147.7 97.2173 148.145 97.9761 149.033V143.25H99.873V159H98.1299L98.0376 157.811C97.2788 158.74 96.2227 159.205 94.8691 159.205C93.584 159.205 92.5347 158.679 91.7212 157.626C90.9146 156.573 90.5112 155.199 90.5112 153.504V153.36ZM92.4082 153.576C92.4082 154.833 92.668 155.818 93.1875 156.529C93.707 157.24 94.4248 157.595 95.3408 157.595C96.5439 157.595 97.4224 157.055 97.9761 155.975V150.879C97.4087 149.833 96.5371 149.31 95.3613 149.31C94.4316 149.31 93.707 149.669 93.1875 150.387C92.668 151.104 92.4082 152.167 92.4082 153.576ZM102.324 153.35C102.324 152.263 102.536 151.286 102.959 150.417C103.39 149.549 103.985 148.879 104.744 148.408C105.509 147.936 106.381 147.7 107.358 147.7C108.869 147.7 110.089 148.223 111.019 149.269C111.956 150.315 112.424 151.706 112.424 153.442V153.576C112.424 154.656 112.215 155.626 111.798 156.488C111.388 157.342 110.797 158.009 110.024 158.487C109.259 158.966 108.377 159.205 107.379 159.205C105.875 159.205 104.655 158.682 103.718 157.636C102.789 156.59 102.324 155.206 102.324 153.483V153.35ZM104.231 153.576C104.231 154.806 104.515 155.794 105.082 156.539C105.656 157.284 106.422 157.657 107.379 157.657C108.343 157.657 109.108 157.281 109.676 156.529C110.243 155.77 110.527 154.71 110.527 153.35C110.527 152.133 110.236 151.149 109.655 150.397C109.081 149.638 108.315 149.259 107.358 149.259C106.422 149.259 105.667 149.631 105.092 150.376C104.518 151.122 104.231 152.188 104.231 153.576ZM119.253 157.657C119.93 157.657 120.521 157.452 121.027 157.042C121.533 156.631 121.813 156.119 121.868 155.503H123.662C123.628 156.139 123.409 156.744 123.006 157.318C122.603 157.893 122.062 158.351 121.386 158.692C120.716 159.034 120.005 159.205 119.253 159.205C117.742 159.205 116.539 158.703 115.644 157.698C114.755 156.686 114.311 155.305 114.311 153.555V153.237C114.311 152.157 114.509 151.197 114.905 150.356C115.302 149.515 115.869 148.862 116.607 148.397C117.353 147.933 118.231 147.7 119.243 147.7C120.487 147.7 121.519 148.073 122.339 148.818C123.167 149.563 123.607 150.53 123.662 151.72H121.868C121.813 151.002 121.54 150.414 121.047 149.956C120.562 149.491 119.96 149.259 119.243 149.259C118.279 149.259 117.53 149.607 116.997 150.305C116.471 150.995 116.208 151.997 116.208 153.309V153.668C116.208 154.946 116.471 155.931 116.997 156.621C117.523 157.312 118.275 157.657 119.253 157.657ZM126.728 159V149.372H124.975V147.905H126.728V146.767C126.728 145.578 127.046 144.658 127.682 144.009C128.317 143.359 129.216 143.035 130.378 143.035C130.816 143.035 131.25 143.093 131.681 143.209L131.578 144.747C131.257 144.686 130.915 144.655 130.553 144.655C129.938 144.655 129.462 144.836 129.127 145.198C128.792 145.554 128.625 146.066 128.625 146.736V147.905H130.994V149.372H128.625V159H126.728ZM132.593 153.35C132.593 152.263 132.805 151.286 133.229 150.417C133.66 149.549 134.254 148.879 135.013 148.408C135.779 147.936 136.65 147.7 137.628 147.7C139.139 147.7 140.359 148.223 141.289 149.269C142.225 150.315 142.693 151.706 142.693 153.442V153.576C142.693 154.656 142.485 155.626 142.068 156.488C141.658 157.342 141.066 158.009 140.294 158.487C139.528 158.966 138.646 159.205 137.648 159.205C136.145 159.205 134.924 158.682 133.988 157.636C133.058 156.59 132.593 155.206 132.593 153.483V153.35ZM134.5 153.576C134.5 154.806 134.784 155.794 135.352 156.539C135.926 157.284 136.691 157.657 137.648 157.657C138.612 157.657 139.378 157.281 139.945 156.529C140.513 155.77 140.796 154.71 140.796 153.35C140.796 152.133 140.506 151.149 139.925 150.397C139.351 149.638 138.585 149.259 137.628 149.259C136.691 149.259 135.936 149.631 135.362 150.376C134.788 151.122 134.5 152.188 134.5 153.576ZM150.435 149.607C150.148 149.56 149.837 149.536 149.502 149.536C148.258 149.536 147.414 150.065 146.969 151.125V159H145.072V147.905H146.918L146.949 149.187C147.571 148.196 148.453 147.7 149.594 147.7C149.963 147.7 150.244 147.748 150.435 147.844V149.607ZM151.532 153.36C151.532 151.631 151.932 150.257 152.732 149.238C153.532 148.213 154.591 147.7 155.911 147.7C157.264 147.7 158.32 148.179 159.079 149.136L159.171 147.905H160.904V158.733C160.904 160.169 160.477 161.3 159.623 162.127C158.775 162.955 157.633 163.368 156.198 163.368C155.398 163.368 154.615 163.197 153.85 162.855C153.084 162.514 152.5 162.045 152.096 161.451L153.081 160.312C153.894 161.317 154.889 161.82 156.064 161.82C156.987 161.82 157.705 161.56 158.218 161.041C158.737 160.521 158.997 159.79 158.997 158.846V157.893C158.238 158.768 157.203 159.205 155.89 159.205C154.591 159.205 153.539 158.682 152.732 157.636C151.932 156.59 151.532 155.165 151.532 153.36ZM153.439 153.576C153.439 154.827 153.696 155.811 154.208 156.529C154.721 157.24 155.439 157.595 156.362 157.595C157.558 157.595 158.437 157.052 158.997 155.965V150.899C158.416 149.84 157.544 149.31 156.382 149.31C155.459 149.31 154.738 149.669 154.219 150.387C153.699 151.104 153.439 152.167 153.439 153.576ZM168.379 159.205C166.875 159.205 165.652 158.713 164.708 157.729C163.765 156.737 163.293 155.415 163.293 153.76V153.412C163.293 152.311 163.502 151.33 163.919 150.469C164.343 149.601 164.931 148.924 165.683 148.438C166.441 147.946 167.262 147.7 168.144 147.7C169.586 147.7 170.707 148.175 171.507 149.125C172.307 150.076 172.707 151.436 172.707 153.207V153.996H165.19C165.218 155.09 165.536 155.975 166.144 156.652C166.759 157.322 167.539 157.657 168.482 157.657C169.152 157.657 169.719 157.52 170.184 157.247C170.649 156.973 171.056 156.611 171.404 156.16L172.563 157.062C171.633 158.491 170.239 159.205 168.379 159.205ZM168.144 149.259C167.378 149.259 166.735 149.539 166.216 150.1C165.696 150.653 165.375 151.433 165.252 152.438H170.81V152.294C170.755 151.33 170.495 150.585 170.03 150.059C169.565 149.525 168.937 149.259 168.144 149.259Z" fill="#E81E1E"/>
</mask>
<g mask="url(#mask1)">
<path fill-rule="evenodd" clip-rule="evenodd" d="M79 137V168.881H181.316V137H79Z" fill="url(#paint4_linear)"/>
</g>
<defs>
<linearGradient id="paint0_linear" x1="134.029" y1="56.0961" x2="98.5725" y2="108.636" gradientUnits="userSpaceOnUse">
<stop stop-color="white"/>
<stop offset="1" stop-color="#439246"/>
</linearGradient>
<linearGradient id="paint1_linear" x1="131.739" y1="75.0407" x2="85.7021" y2="159.989" gradientUnits="userSpaceOnUse">
<stop stop-color="white"/>
<stop offset="1" stop-color="#439246"/>
</linearGradient>
<linearGradient id="paint2_linear" x1="27.8611" y1="83.1772" x2="68.2426" y2="150.167" gradientUnits="userSpaceOnUse">
<stop stop-color="white"/>
<stop offset="1" stop-color="#439246"/>
</linearGradient>
<linearGradient id="paint3_linear" x1="42.0698" y1="113.67" x2="92.1142" y2="211.996" gradientUnits="userSpaceOnUse">
<stop stop-color="white"/>
<stop offset="1" stop-color="#439246"/>
</linearGradient>
<linearGradient id="paint4_linear" x1="11.3488" y1="151.559" x2="29.137" y2="245.326" gradientUnits="userSpaceOnUse">
<stop stop-color="white"/>
<stop offset="1" stop-color="#439246"/>
</linearGradient>
</defs>
</svg>
